<?xml version="1.0" encoding="utf-8"?>
<!-- Generator: Adobe Illustrator 23.0.3, SVG Export Plug-In . SVG Version: 6.00 Build 0)  -->
<svg version="1.1" id="Layer_1" xmlns="http://www.w3.org/2000/svg" xmlns:xlink="http://www.w3.org/1999/xlink" x="0px" y="0px"
	 viewBox="0 0 250 100" style="enable-background:new 0 0 250 100;" xml:space="preserve">
<style type="text/css">
	.st0{fill:url(#SVGID_1_);}
	.st1{fill:url(#SVGID_2_);}
	.st2{fill:url(#SVGID_3_);}
	.st3{fill:url(#SVGID_4_);}
	.st4{fill:url(#SVGID_5_);}
	.st5{fill:url(#SVGID_6_);}
	.st6{fill:#596164;}
	.st7{fill:#868F96;}
</style>
<g>
	<linearGradient id="SVGID_1_" gradientUnits="userSpaceOnUse" x1="42.2206" y1="40.6803" x2="84.5557" y2="40.6803">
		<stop  offset="0" style="stop-color:#00CDAC"/>
		<stop  offset="1" style="stop-color:#02AAB0"/>
	</linearGradient>
	<polygon class="st0" points="83.29,13.73 76.97,13.73 70.65,13.73 63.39,27.51 56.44,40.68 42.22,67.63 56.12,67.63 63.39,53.86 
		70.34,40.68 76.97,28.1 83.92,14.93 84.56,13.73 	"/>
	<linearGradient id="SVGID_2_" gradientUnits="userSpaceOnUse" x1="15.0503" y1="40.6803" x2="62.1244" y2="40.6803">
		<stop  offset="0" style="stop-color:#00CDAC"/>
		<stop  offset="1" style="stop-color:#02AAB0"/>
	</linearGradient>
	<polygon class="st1" points="55.17,38.28 62.12,25.11 56.75,14.93 56.12,13.73 49.8,13.73 43.48,13.73 15.05,67.63 28.95,67.63 
		49.8,28.1 	"/>
</g>
<g>
	<linearGradient id="SVGID_3_" gradientUnits="userSpaceOnUse" x1="138.3323" y1="36.5412" x2="138.3323" y2="14.6381">
		<stop  offset="0" style="stop-color:#00CDAC"/>
		<stop  offset="1" style="stop-color:#02AAB0"/>
	</linearGradient>
	<path class="st2" d="M124.97,36.54v-21.9h10.04l8.46,12.62V14.64h8.22v21.9h-9.52l-9.2-12.82v12.82H124.97z"/>
	<linearGradient id="SVGID_4_" gradientUnits="userSpaceOnUse" x1="168.4545" y1="36.5412" x2="168.4545" y2="14.6381">
		<stop  offset="0" style="stop-color:#00CDAC"/>
		<stop  offset="1" style="stop-color:#02AAB0"/>
	</linearGradient>
	<path class="st3" d="M156.49,36.54v-21.9h23.21v5.38h-14.72v2.61h11.92v5.41h-11.92v2.87h15.45v5.64H156.49z"/>
	<linearGradient id="SVGID_5_" gradientUnits="userSpaceOnUse" x1="194.5487" y1="36.5412" x2="194.5487" y2="14.6381">
		<stop  offset="0" style="stop-color:#00CDAC"/>
		<stop  offset="1" style="stop-color:#02AAB0"/>
	</linearGradient>
	<path class="st4" d="M179.99,36.54l9.76-11.55l-8.37-10.35h10.25l3.01,4.74l3.24-4.74h10.13l-8.49,10.35l9.58,11.55h-10.62
		l-3.91-5.88l-4,5.88H179.99z"/>
	<linearGradient id="SVGID_6_" gradientUnits="userSpaceOnUse" x1="221.8127" y1="36.5412" x2="221.8127" y2="14.6381">
		<stop  offset="0" style="stop-color:#00CDAC"/>
		<stop  offset="1" style="stop-color:#02AAB0"/>
	</linearGradient>
	<path class="st5" d="M207.26,36.54l9.49-21.9h10.77l8.86,21.9h-9.2l-0.73-2.15h-9.32l-0.78,2.15H207.26z M219.13,28.99h5.44
		l-2.64-7.7L219.13,28.99z"/>
</g>
<g>
	<g>
		<g>
			<polygon class="st6" points="112.99,17.32 106.04,30.5 111.73,41.28 118.68,28.1 			"/>
			<polygon class="st6" points="111.09,13.73 104.78,13.73 98.46,13.73 90.87,28.1 83.92,41.28 77.29,53.86 71.6,43.08 64.65,56.25 
				70.34,67.03 70.65,67.63 78.24,67.63 83.92,67.63 90.87,54.45 97.82,41.28 104.78,28.1 111.73,14.93 			"/>
		</g>
	</g>
	<g>
		<path class="st6" d="M97.25,59.72l10.28-0.01c0.08,0.59,0.45,1.05,1.11,1.37s1.56,0.48,2.71,0.48c1.15,0,2-0.13,2.57-0.39
			c0.57-0.26,0.85-0.65,0.85-1.18c0-0.46-0.25-0.84-0.74-1.12c-0.49-0.28-1.25-0.49-2.28-0.61l-6.34-0.78
			c-2.63-0.32-4.6-1.02-5.93-2.12c-1.33-1.1-1.99-2.56-1.99-4.4c0-2.45,1-4.24,3.01-5.36c2.01-1.13,5.21-1.69,9.6-1.69
			c4.56,0,7.95,0.56,10.17,1.69c2.22,1.13,3.42,2.88,3.6,5.26h-9.86c-0.11-0.69-0.52-1.21-1.24-1.56c-0.72-0.35-1.73-0.53-3.04-0.53
			c-0.95,0-1.69,0.13-2.24,0.39c-0.54,0.26-0.81,0.61-0.81,1.06c0,0.41,0.21,0.73,0.63,0.95s1.29,0.42,2.61,0.61l7.73,1.1
			c2.42,0.35,4.23,1.05,5.42,2.11c1.19,1.06,1.79,2.49,1.79,4.29c0,2.69-1.19,4.66-3.58,5.91c-2.39,1.25-6.16,1.88-11.3,1.88
			c-4.09,0-7.22-0.63-9.41-1.9C98.38,63.89,97.28,62.08,97.25,59.72z"/>
		<path class="st6" d="M127.03,55.44c0-3.81,1.24-6.69,3.72-8.63s6.15-2.91,11.02-2.91c4.87,0,8.54,0.97,11.02,2.91
			s3.72,4.82,3.72,8.63c0,3.8-1.24,6.67-3.72,8.61c-2.48,1.94-6.15,2.91-11.02,2.91c-4.87,0-8.54-0.97-11.02-2.91
			C128.27,62.11,127.03,59.24,127.03,55.44z M136.15,55.44c0,1.91,0.48,3.36,1.44,4.37c0.96,1.01,2.35,1.51,4.17,1.51
			c1.82,0,3.21-0.5,4.17-1.51c0.96-1.01,1.44-2.46,1.44-4.37c0-1.92-0.48-3.38-1.44-4.4c-0.96-1.02-2.35-1.53-4.17-1.53
			c-1.82,0-3.21,0.51-4.17,1.53C136.63,52.06,136.15,53.52,136.15,55.44z"/>
		<path class="st6" d="M160.02,66.38v-21.9h21.86v5.38h-13.37v2.98h10.93v5.39h-10.93v8.16H160.02z"/>
		<path class="st6" d="M190.18,66.38V50.03h-7.92v-5.55h24.36v5.55h-7.95v16.35H190.18z"/>
		<path class="st6" d="M207.71,59.72l10.28-0.01c0.08,0.59,0.45,1.05,1.11,1.37c0.66,0.32,1.56,0.48,2.71,0.48
			c1.15,0,2-0.13,2.57-0.39c0.57-0.26,0.85-0.65,0.85-1.18c0-0.46-0.25-0.84-0.74-1.12c-0.49-0.28-1.25-0.49-2.28-0.61l-6.34-0.78
			c-2.63-0.32-4.6-1.02-5.93-2.12s-1.99-2.56-1.99-4.4c0-2.45,1-4.24,3.01-5.36c2.01-1.13,5.21-1.69,9.6-1.69
			c4.56,0,7.95,0.56,10.17,1.69c2.22,1.13,3.42,2.88,3.6,5.26h-9.86c-0.11-0.69-0.52-1.21-1.24-1.56c-0.72-0.35-1.73-0.53-3.04-0.53
			c-0.95,0-1.69,0.13-2.24,0.39c-0.54,0.26-0.81,0.61-0.81,1.06c0,0.41,0.21,0.73,0.63,0.95c0.42,0.22,1.29,0.42,2.61,0.61l7.73,1.1
			c2.42,0.35,4.23,1.05,5.42,2.11c1.19,1.06,1.79,2.49,1.79,4.29c0,2.69-1.19,4.66-3.58,5.91c-2.39,1.25-6.16,1.88-11.3,1.88
			c-4.09,0-7.22-0.63-9.41-1.9C208.85,63.89,207.74,62.08,207.71,59.72z"/>
	</g>
</g>
<g>
	<path class="st7" d="M14.2,83.03v-8.15h1.3l5.74,4.81c0.2,0.16,0.37,0.31,0.52,0.45c0.15,0.14,0.29,0.29,0.41,0.44
		c-0.03-0.46-0.05-0.78-0.06-0.97s-0.02-0.34-0.02-0.44v-4.28h1.7v8.15h-1.3l-5.99-5.04c-0.14-0.13-0.27-0.24-0.38-0.35
		s-0.21-0.21-0.3-0.32c0.03,0.25,0.04,0.49,0.06,0.71s0.02,0.42,0.02,0.58v4.4H14.2z"/>
	<path class="st7" d="M27.95,83.03v-8.15h8.35v1.39h-6.45v1.82h3.76v1.39h-3.76v2.02h6.53v1.54H27.95z"/>
	<path class="st7" d="M38.63,83.03l3.86-4.19l-3.93-3.96h2.51l2.61,2.77l2.48-2.77h2.18l-3.56,3.75l4.4,4.4H46.6l-2.99-3.16
		l-2.75,3.16H38.63z"/>
	<path class="st7" d="M55,76.33v6.7h-1.9v-6.7h-3.74v-1.46h9.39v1.46H55z"/>
	<path class="st7" d="M74.85,76.33h-5.92v5.16h5.92v-1.81h-3.1v-1.39h4.94v2.81c0,0.75-0.14,1.25-0.42,1.52
		c-0.28,0.27-0.81,0.41-1.6,0.41h-5.62c-0.79,0-1.33-0.13-1.6-0.41c-0.28-0.27-0.42-0.78-0.42-1.52v-4.3c0-0.74,0.14-1.25,0.42-1.52
		c0.28-0.27,0.81-0.41,1.6-0.41h5.62c0.78,0,1.31,0.13,1.6,0.4s0.42,0.75,0.42,1.45v0.19l-1.84,0.33V76.33z"/>
	<path class="st7" d="M80.7,83.03v-8.15h8.35v1.39H82.6v1.82h3.76v1.39H82.6v2.02h6.53v1.54H80.7z"/>
	<path class="st7" d="M92.61,83.03v-8.15h1.3l5.74,4.81c0.2,0.16,0.37,0.31,0.52,0.45c0.15,0.14,0.29,0.29,0.41,0.44
		c-0.03-0.46-0.05-0.78-0.06-0.97s-0.02-0.34-0.02-0.44v-4.28h1.7v8.15h-1.3l-5.99-5.04c-0.14-0.13-0.27-0.24-0.38-0.35
		s-0.21-0.21-0.3-0.32c0.03,0.25,0.04,0.49,0.06,0.71s0.02,0.42,0.02,0.58v4.4H92.61z"/>
	<path class="st7" d="M112.47,83.03v-8.15h1.9v8.15H112.47z"/>
	<path class="st7" d="M122.33,76.33v6.7h-1.9v-6.7h-3.74v-1.46h9.39v1.46H122.33z"/>
	<path class="st7" d="M141.59,76.3h-5.34v1.75h5.08c0.8,0,1.33,0.14,1.62,0.41c0.28,0.27,0.42,0.78,0.42,1.52v1.12
		c0,0.74-0.14,1.25-0.42,1.52c-0.28,0.27-0.82,0.41-1.62,0.41h-5.04c-0.8,0-1.34-0.14-1.62-0.41c-0.28-0.27-0.42-0.78-0.42-1.52
		v-0.22l1.67-0.35v0.96h5.76v-1.86h-5.08c-0.79,0-1.33-0.14-1.61-0.41s-0.42-0.78-0.42-1.52v-0.9c0-0.74,0.14-1.25,0.42-1.52
		s0.81-0.41,1.61-0.41h4.63c0.77,0,1.29,0.13,1.59,0.39c0.29,0.26,0.44,0.73,0.44,1.4v0.17l-1.67,0.39V76.3z"/>
	<path class="st7" d="M147.14,76.81c0-0.74,0.14-1.25,0.42-1.52s0.81-0.41,1.6-0.41h6c0.79,0,1.33,0.14,1.6,0.41
		s0.42,0.78,0.42,1.52v4.3c0,0.75-0.14,1.25-0.42,1.52c-0.28,0.27-0.81,0.41-1.6,0.41h-6c-0.79,0-1.33-0.13-1.6-0.41
		c-0.28-0.27-0.42-0.78-0.42-1.52V76.81z M149.04,81.5h6.26v-5.16h-6.26V81.5z"/>
	<path class="st7" d="M161.18,83.03v-8.15h1.9v6.62h6.12v1.54H161.18z"/>
	<path class="st7" d="M173.59,74.88v6.62h5.41v-6.62h1.89v6.22c0,0.75-0.14,1.25-0.42,1.52c-0.28,0.27-0.81,0.41-1.61,0.41h-5.15
		c-0.79,0-1.32-0.13-1.6-0.41c-0.28-0.27-0.42-0.78-0.42-1.52v-6.22H173.59z"/>
	<path class="st7" d="M188.85,76.33v6.7h-1.9v-6.7h-3.74v-1.46h9.39v1.46H188.85z"/>
	<path class="st7" d="M194.93,83.03v-8.15h1.9v8.15H194.93z"/>
	<path class="st7" d="M200.82,76.81c0-0.74,0.14-1.25,0.42-1.52s0.81-0.41,1.6-0.41h6c0.79,0,1.33,0.14,1.6,0.41
		s0.42,0.78,0.42,1.52v4.3c0,0.75-0.14,1.25-0.42,1.52c-0.28,0.27-0.81,0.41-1.6,0.41h-6c-0.79,0-1.33-0.13-1.6-0.41
		c-0.28-0.27-0.42-0.78-0.42-1.52V76.81z M202.72,81.5h6.26v-5.16h-6.26V81.5z"/>
	<path class="st7" d="M214.84,83.03v-8.15h1.3l5.74,4.81c0.2,0.16,0.37,0.31,0.52,0.45c0.15,0.14,0.29,0.29,0.41,0.44
		c-0.03-0.46-0.05-0.78-0.06-0.97s-0.02-0.34-0.02-0.44v-4.28h1.71v8.15h-1.3l-5.98-5.04c-0.14-0.13-0.27-0.24-0.38-0.35
		c-0.11-0.1-0.21-0.21-0.3-0.32c0.03,0.25,0.04,0.49,0.06,0.71s0.02,0.42,0.02,0.58v4.4H214.84z"/>
	<path class="st7" d="M235.65,76.3h-5.34v1.75h5.08c0.8,0,1.33,0.14,1.62,0.41c0.28,0.27,0.42,0.78,0.42,1.52v1.12
		c0,0.74-0.14,1.25-0.42,1.52c-0.28,0.27-0.82,0.41-1.62,0.41h-5.04c-0.8,0-1.34-0.14-1.62-0.41c-0.28-0.27-0.42-0.78-0.42-1.52
		v-0.22l1.67-0.35v0.96h5.76v-1.86h-5.08c-0.79,0-1.33-0.14-1.61-0.41s-0.42-0.78-0.42-1.52v-0.9c0-0.74,0.14-1.25,0.42-1.52
		s0.81-0.41,1.61-0.41h4.63c0.77,0,1.29,0.13,1.59,0.39c0.29,0.26,0.44,0.73,0.44,1.4v0.17l-1.67,0.39V76.3z"/>
</g>
</svg>
